<?xml version="1.0" encoding="UTF-8"?>
<svg width="1200pt" height="1200pt" version="1.1" viewBox="0 0 1200 1200" xmlns="http://www.w3.org/2000/svg">
 <g fill="#ff814a" fill-rule="evenodd">
  <path d="m782.24 85.117c-6.8711 0.76953-13.074 4.4648-17.027 10.137-3.9492 5.6758-5.2617 12.777-3.5977 19.488 9.8438 39.043 15 80.055 15 122.25 0 272.41-218.24 492.38-487.88 492.38-64.977 0-127.01-12.797-183.75-36-5.5039-2.2227-11.637-2.3242-17.215-0.28516-5.5742 2.0391-10.199 6.0703-12.977 11.316-2.7773 5.2461-3.5078 11.336-2.0586 17.094 59.02 233.78 269.39 406.5 519.38 406.5 295.81 0 535.88-242.25 535.88-540.38 0-226.25-138.06-420.47-334.12-501-2.9922-1.1211-6.1797-1.6289-9.375-1.5-0.75-0.035157-1.5-0.035157-2.25 0zm35.625 65.625c155.7 82.223 262.12 246.85 262.12 436.88 0 272.41-218.24 492.38-487.88 492.38-211.7 0-391.77-135.77-459.38-325.88 49.363 15.117 101.79 23.25 156 23.25 295.81 0 535.88-242.25 535.88-540.38 0-29.273-2.3047-58.23-6.75-86.25z"/>
  <path d="m230.73 241.4c-5.0664 0.09375-9.9727 1.8086-14.008 4.9023-4.0352 3.0898-6.9922 7.3945-8.4453 12.293l-25.078 84.758h-0.015625l-12.641 42.984-11.863 3.9336h-0.003906-0.078126l-65.039 21.793c-6.3945 2.1445-11.59 6.9141-14.316 13.133-2.7227 6.2188-2.7148 13.309 0.019531 19.523 2.7305 6.2148 7.9375 10.973 14.332 13.109l64.977 21.652v0.003906h0.0625l11.898 4.0039 12.656 42.941h0.003906 0.007813l25.078 84.758v-0.003906c1.9766 6.6797 6.7148 12.168 13.004 15.055 6.2852 2.8828 13.5 2.8828 19.785 0 6.2891-2.8867 11.027-8.375 13.004-15.055l24.945-84.707h0.015625l12.742-42.926 11.93-4.0156h0.0625v-0.003906l64.977-21.652h-0.003906c6.3984-2.1328 11.605-6.8945 14.336-13.109 2.7344-6.2109 2.7383-13.301 0.015625-19.52s-7.918-10.988-14.312-13.133l-65.039-21.793v-0.003906h-0.082032l-11.898-3.9414-12.73-42.984h-0.011719l-24.949-84.723c-1.4883-5.0508-4.5781-9.4727-8.793-12.582-4.2148-3.1133-9.3242-4.7422-14.547-4.6484z"/>
  <path d="m568.74 72.008c-5.0586 0.10156-9.957 1.8203-13.988 4.9102-4.0273 3.0938-6.9805 7.3945-8.4336 12.289l-25.078 84.758v-0.003906h-0.007813l-12.656 42.941-11.898 4.0039h-0.0625v0.003906l-64.977 21.652c-6.3984 2.1367-11.605 6.8945-14.336 13.109-2.7344 6.2148-2.7422 13.305-0.019532 19.523 2.7266 6.2188 7.9258 10.988 14.316 13.133l65.039 21.793 0.003906 0.003906h0.078125l11.863 3.9297 12.641 42.984h0.015626l25.078 84.758h0.003907c1.9766 6.6719 6.7188 12.152 13 15.035 6.2852 2.8828 13.496 2.8828 19.777 0 6.2852-2.8828 11.023-8.3633 13.004-15.035l25.078-84.758h0.015625l12.641-42.984 11.863-3.9297h0.082031l65.039-21.793v-0.003906c6.3945-2.1445 11.594-6.9141 14.316-13.133s2.7148-13.309-0.015625-19.523c-2.7344-6.2148-7.9414-10.973-14.34-13.109l-64.977-21.652v-0.003906h-0.0625l-11.898-4.0039-12.656-42.941h-0.007812l-25.078-84.758v0.003906c-1.4961-5.0508-4.5898-9.4648-8.8086-12.57s-9.332-4.7305-14.555-4.6289z"/>
 </g>
</svg>
