<?xml version="1.0" encoding="UTF-8"?>
<svg width="128pt" height="128pt" version="1.1" viewBox="0 0 128 128" xmlns="http://www.w3.org/2000/svg">
 <path d="m64 11.52c-28.969 0-52.48 23.512-52.48 52.48s23.512 52.48 52.48 52.48 52.48-23.512 52.48-52.48-23.512-52.48-52.48-52.48zm0 2.5586c27.586 0 49.922 22.336 49.922 49.922s-22.336 49.922-49.922 49.922-49.922-22.336-49.922-49.922 22.336-49.922 49.922-49.922zm0 19.199c-9.5469 0-17.281 6.4023-19.121 13.762-0.10938 0.33984-0.070312 0.71094 0.10156 1.0195 0.17578 0.3125 0.46875 0.53516 0.81641 0.61719 0.34766 0.085938 0.71094 0.019531 1.0078-0.17578 0.29687-0.19531 0.49609-0.50781 0.55469-0.85938 1.5-6.0156 8.2578-11.801 16.641-11.801 4.168 0 8.4062 1.4766 11.52 4 3.1172 2.5234 5.1211 6.0273 5.1211 10.078 0 4.6016-1.0195 7.1914-2.5195 9.1211-1.5 1.9297-3.6328 3.2461-5.9219 4.8789-2.2891 1.6367-4.7148 3.6055-6.5195 6.9609-1.8047 3.3516-2.9609 8.0195-2.9609 14.879v0.003907c0 0.70703 0.57422 1.2773 1.2812 1.2773s1.2812-0.57031 1.2812-1.2773c0-6.5781 1.0859-10.754 2.6406-13.641 1.5547-2.8867 3.6094-4.5547 5.8008-6.1211 2.1875-1.5664 4.543-3.0117 6.3984-5.3984 1.8555-2.3906 3.0781-5.6797 3.0781-10.68 0-4.9062-2.4805-9.125-6.0781-12.039-3.5977-2.9141-8.3438-4.6016-13.121-4.6016zm0 56.32c-1.4141 0-2.5586 1.1445-2.5586 2.5586s1.1484 2.5586 2.5586 2.5586c1.4141 0 2.5586-1.1445 2.5586-2.5586s-1.1484-2.5586-2.5586-2.5586z"/>
</svg>
