<?xml version="1.0" encoding="UTF-8"?>
<svg width="128pt" height="128pt" version="1.1" viewBox="0 0 128 128" fill ="orange" xmlns="http://www.w3.org/2000/svg">
 <path d="m64 6.3984c-31.617 0-57.344 25.73-57.602 57.219-0.12891 15.359 5.7617 29.953 16.641 40.832 10.754 11.008 25.215 17.023 40.574 17.152h0.38281c31.617 0 57.344-25.727 57.602-57.215 0.25781-31.746-25.469-57.73-57.598-57.988zm-4.3516 30.211c0-2.4336 1.9219-4.3516 4.3516-4.3516 2.4336 0 4.3516 1.9219 4.3516 4.3516v35.84c0 2.4336-1.9219 4.3516-4.3516 4.3516-2.4336 0-4.3516-1.9219-4.3516-4.3516zm10.238 54.781c0 3.1992-2.6875 5.8867-5.8867 5.8867s-5.8867-2.6875-5.8867-5.8867v-0.25781c0-3.1992 2.6875-5.8867 5.8867-5.8867s5.8867 2.6875 5.8867 5.8867z"/>
</svg>
