<?xml version="1.0" encoding="UTF-8"?>
<svg width="128pt" height="128pt" version="1.1" viewBox="0 0 128 128" fill="green" xmlns="http://www.w3.org/2000/svg">
 <path d="m64 113.41c27.266 0 49.406-22.145 49.406-49.406 0-27.266-22.141-49.406-49.406-49.406s-49.406 22.145-49.406 49.406c0 27.266 22.141 49.406 49.406 49.406zm-24.32-56.062c2.1758-2.1758 5.5039-2.1758 7.6797 0l10.367 10.367 20.734-20.734c2.1758-2.1758 5.5039-2.1758 7.6797 0 2.1758 2.1758 2.1758 5.5039 0 7.6797l-24.574 24.449c-1.0234 1.0234-2.4336 1.5352-3.8398 1.5352s-2.8164-0.51172-3.8398-1.5352l-14.078-14.078c-2.1758-2.1797-2.1758-5.5078-0.12891-7.6836z"/>
</svg>
